mtllib materials.mtl
v -0.223889 0.05312514 -0.02611113
v 0.00500004 0.01812506 0.03499997
v 0.00500004 0.01812506 -0.03499997
v 0.00500004 0.09812498 -0.03499997
v 0.00500004 0.09812498 0.03499997
v 0.535 0.018125 0.04500008
v 0.535 0.09812504 0.04500008
v 0.535 0.09812504 -0.03499997
v 0.535 0.018125 -0.03499997
v 0.2850001 -0.1018751 0.03499997
v 0.2050001 -0.1018751 0.03499997
v 0.205 0.01812494 0.03499997
v 0.285 0.01812494 0.03499997
v 0.2850001 -0.1018751 -0.03499997
v 0.285 0.01812494 -0.03499997
v 0.205 0.01812494 -0.03499997
v 0.2050001 -0.1018751 -0.03499997
v -0.07500002 -0.1618751 -0.03499997
v -0.07500002 0.2081251 -0.03499997
v -0.075 0.208125 0.03499997
v -0.075 -0.1618751 0.03500009
v 0.0050001 -0.1618751 -0.03499997
v 0.005000085 -0.1618751 0.03500009
v 0.00500001 0.208125 0.03499997
v 0.005000025 0.2081251 -0.03499997
v -0.325 -0.1618751 -0.03499997
v -0.325 0.1281251 -0.03499997
v -0.325 0.128125 0.03499997
v -0.325 -0.1618751 0.03499997
v -0.2449999 -0.1618751 -0.03499997
v -0.245 -0.1618751 0.03499997
v -0.245 0.128125 0.03499997
v -0.2449999 0.1281251 -0.03499997
v -0.3250001 0.1281251 -0.03499997
v -0.3250001 0.208125 -0.03499997
v -0.325 0.2081251 0.03499997
v -0.325 0.128125 0.03499997
v -0.06499988 0.1281251 -0.03499997
v -0.06499998 0.128125 0.03500009
v -0.06499998 0.2081251 0.03500009
v -0.06499988 0.208125 -0.03499997
v 0.455 -0.1018749 0.04499996
v 0.455 -0.1018749 -0.03499997
v 0.455 0.01812506 -0.03500009
v 0.455 0.01812506 0.04499996
v 0.535 -0.1018749 0.04499996
v 0.535 0.01812506 0.04499996
v 0.535 0.01812506 -0.03499997
v 0.535 -0.1018749 -0.03499997
v -0.2450001 -0.161875 -0.03499997
v -0.2450001 -0.08187497 -0.03499997
v -0.245 -0.08187497 0.03499997
v -0.245 -0.161875 0.03499997
v -0.07499987 -0.161875 -0.03499997
v -0.07499996 -0.161875 0.03499997
v -0.07499996 -0.08187497 0.03499997
v -0.07499987 -0.08187497 -0.03499997
vn 0 0 0
vn 0 0 0
vn 0 0 0
vn 0 0 0
vn 0 0 0
vn 0 0 0
vn -1 7.776528E-08 -8.742279E-08
vn 1 5.7742E-08 8.742277E-08
vn -7.310005E-08 -1 1.1794E-07
vn -6.747695E-08 1 -9.591625E-08
vn -0.01886468 8.201275E-08 0.9998221
vn -1.486452E-08 -1.049963E-07 -1
vn -2.793972E-09 -1.769502E-08 1
vn 4.936012E-08 -2.858772E-07 -1
vn -6.632362E-15 -1 2.419324E-15
vn -2.157644E-08 1 -1.064369E-07
vn 1 2.990218E-07 -7.313304E-08
vn -1 -4.542423E-07 -8.643755E-08
vn -1 -1.006837E-08 2.51852E-07
vn 1 2.064011E-07 2.688259E-07
vn 5.932123E-09 -2.944857E-09 -1
vn -6.413973E-08 -1.172208E-07 1
vn -7.011471E-08 -1 9.707048E-07
vn 6.100157E-08 1 3.065383E-07
vn -1 5.138328E-08 -9.095348E-09
vn 1 5.780618E-08 4.568644E-07
vn -5.486789E-09 1.894914E-09 -1
vn -1.2257E-07 -1.784928E-07 1
vn -1.995669E-08 -1 1.192093E-07
vn 4.650639E-10 1 1.583781E-06
vn -1 -6.158573E-14 5.509105E-07
vn 1 -4.973394E-14 1.318387E-06
vn -2.800326E-09 3.116429E-09 -1
vn -2.622683E-07 -1.053111E-07 1
vn -5.260426E-09 -1 -4.129753E-07
vn 1.678573E-09 1 -5.449569E-07
vn -1 -5.137308E-07 -6.413963E-08
vn 1 3.750022E-07 6.413966E-08
vn 2.225213E-10 -1 -9.854594E-10
vn -1.748455E-07 1 -2.200147E-07
vn -8.206764E-08 -1.200732E-07 1
vn 4.90834E-08 -5.008085E-07 -1
vn -1 -7.465852E-14 1.091609E-06
vn 1 5.166389E-15 1.195987E-06
vn -6.930692E-10 1.665485E-08 -1
vn 1.165004E-08 -6.053605E-08 1
vn -9.804697E-08 -1 1.99037E-07
vn -6.395618E-08 1 1.468831E-07
vt 0 0
vt 0 0
vt 0 0
vt 0 0
vt 0 0
vt 0 0
vt -0.2013409 -0.04673155
vt -0.1956448 -0.04266289
vt -0.2002947 -0.03615303
vt -0.2059908 -0.04022169
vt 0.2021546 -0.04731283
vt 0.2068045 -0.04080296
vt 0.2002947 -0.03615305
vt 0.1956448 -0.04266292
vt 0.1855904 -0.04823063
vt 0.204358 0.001345346
vt 0.1968241 0.004036038
vt 0.1789983 -0.04587628
vt -0.1855904 -0.04823062
vt -0.1789983 -0.04587627
vt -0.1968241 0.004036049
vt -0.204358 0.001345357
vt 0.06129732 0.0539259
vt 0.06844275 0.0575235
vt 0.04460442 0.1048705
vt 0.03745898 0.1012728
vt -0.06305709 0.05053513
vt -0.03935477 0.09793977
vt -0.04651019 0.1015175
vt -0.07021251 0.05411284
vt 0.039802 0.07021255
vt 0.04337971 0.06305713
vt 0.05411284 0.06842369
vt 0.05053513 0.07557911
vt -0.03980194 0.07021253
vt -0.05053506 0.07557909
vt -0.05411277 0.06842367
vt -0.04337965 0.06305712
vt 0.1950078 -0.02186185
vt 0.1884157 -0.0195075
vt 0.185725 -0.02704143
vt 0.1923172 -0.02939579
vt -0.1950079 -0.02186184
vt -0.1923172 -0.02939578
vt -0.185725 -0.02704143
vt -0.1884157 -0.01950749
vt 0.194366 -0.05649642
vt 0.2013409 -0.04673162
vt 0.1956448 -0.04266295
vt 0.1886699 -0.05242775
vt -0.194366 -0.05649648
vt -0.1886699 -0.05242781
vt -0.1956447 -0.04266301
vt -0.2013409 -0.04673167
vt -0.1851825 -0.05731005
vt -0.2066883 -0.02720189
vt -0.2123845 -0.03127055
vt -0.1908787 -0.06137871
vt 0.1851825 -0.05731021
vt 0.1908786 -0.06137888
vt 0.2123844 -0.03127074
vt 0.2066883 -0.02720207
vt -0.05053512 0.03532987
vt -0.04695741 0.0424853
vt -0.08005123 0.05903221
vt -0.08362895 0.05187679
vt 0.05053514 0.0353299
vt 0.08362895 0.0518768
vt 0.08005124 0.05903222
vt 0.04695743 0.04248532
vt 0.1763076 -0.05341017
vt 0.1828998 -0.05576452
vt 0.1855905 -0.04823058
vt 0.1789983 -0.04587622
vt -0.1763075 -0.05341023
vt -0.1789982 -0.04587629
vt -0.1855904 -0.04823065
vt -0.1828997 -0.05576459
vt -0.1851825 -0.0573101
vt -0.2020384 -0.03371181
vt -0.2077345 -0.03778048
vt -0.1908786 -0.06137876
vt 0.1851825 -0.05731023
vt 0.1908786 -0.0613789
vt 0.2077345 -0.03778064
vt 0.2020384 -0.03371196
vt -0.06171547 0.0129692
vt -0.05813776 0.02012462
vt -0.08407617 0.03309382
vt -0.08765388 0.0259384
vt 0.06171549 0.01296923
vt 0.08765388 0.02593843
vt 0.08407617 0.03309385
vt 0.05813777 0.02012465
vt 0.1678991 -0.07695375
vt 0.1744913 -0.07930811
vt 0.177182 -0.07177417
vt 0.1705898 -0.06941982
vt -0.1678989 -0.07695384
vt -0.1705896 -0.06941991
vt -0.1771818 -0.07177426
vt -0.1744911 -0.0793082
vt -0.2020384 -0.03371166
vt -0.2066883 -0.0272018
vt -0.2123844 -0.03127046
vt -0.2077345 -0.03778033
vt 0.2020384 -0.03371217
vt 0.2077345 -0.03778086
vt 0.2123844 -0.03127099
vt 0.2066883 -0.02720232
vt -0.08765388 0.02593839
vt -0.07602631 0.04919352
vt -0.08318172 0.05277122
vt -0.09480928 0.0295161
vt 0.08765386 0.02593845
vt 0.09480928 0.02951616
vt 0.08318172 0.05277127
vt 0.07602631 0.04919356
vt 0.1678991 -0.07695379
vt 0.1744913 -0.07930814
vt 0.183236 -0.05482285
vt 0.1766438 -0.05246849
vt -0.1678992 -0.07695375
vt -0.176644 -0.05246844
vt -0.1832362 -0.0548228
vt -0.1744914 -0.07930809
vt -0.1951797 -0.05707773
vt -0.1886699 -0.05242782
vt -0.1956447 -0.04266302
vt -0.2021546 -0.04731293
vt 0.1951797 -0.05707771
vt 0.2021546 -0.04731291
vt 0.1956447 -0.042663
vt 0.1886699 -0.0524278
vt 0.2016673 -0.006188576
vt 0.204358 0.001345358
vt 0.1968241 0.004036047
vt 0.1941334 -0.003497887
vt -0.2016673 -0.006188552
vt -0.1941334 -0.00349786
vt -0.1968241 0.00403607
vt -0.204358 0.001345382
vt 0.03219939 0.08541784
vt 0.04293252 0.09078439
vt 0.03935481 0.0979398
vt 0.02862168 0.09257325
vt -0.03219928 0.08541778
vt -0.02862157 0.0925732
vt -0.0393547 0.09793976
vt -0.04293241 0.09078435
vt -0.1851826 -0.05730983
vt -0.1898325 -0.05079995
vt -0.1955286 -0.0548686
vt -0.1908787 -0.06137849
vt 0.1851824 -0.05731038
vt 0.1908785 -0.06137906
vt 0.1955284 -0.05486919
vt 0.1898323 -0.05080052
vt -0.05813777 0.02012461
vt -0.05053513 0.03532989
vt -0.05769055 0.03890761
vt -0.06529319 0.02370232
vt 0.05813777 0.02012462
vt 0.0652932 0.02370233
vt 0.05769056 0.03890759
vt 0.05053514 0.03532989
vt 0.1705898 -0.06941984
vt 0.177182 -0.07177418
vt 0.1828997 -0.05576456
vt 0.1763076 -0.0534102
vt -0.1705898 -0.06941985
vt -0.1763075 -0.05341021
vt -0.1828997 -0.05576457
vt -0.177182 -0.07177418
o group1808848370
g mesh1808848370
usemtl mat12
f 1/1/1
f 1/2/2
f 1/3/3
f 1/4/4
f 1/5/5
f 1/6/6
f 5/10/7 4/9/7 3/8/7 2/7/7
f 9/14/8 8/13/8 7/12/8 6/11/8
f 3/18/9 9/17/9 6/16/9 2/15/9
f 7/22/10 8/21/10 4/20/10 5/19/10
f 6/26/11 7/25/11 5/24/11 2/23/11
f 4/30/12 8/29/12 9/28/12 3/27/12
f 13/34/13 12/33/13 11/32/13 10/31/13
f 17/38/14 16/37/14 15/36/14 14/35/14
f 11/42/15 17/41/15 14/40/15 10/39/15
f 15/46/16 16/45/16 12/44/16 13/43/16
f 14/50/17 15/49/17 13/48/17 10/47/17
f 12/54/18 16/53/18 17/52/18 11/51/18
f 21/58/19 20/57/19 19/56/19 18/55/19
f 25/62/20 24/61/20 23/60/20 22/59/20
f 19/66/21 25/65/21 22/64/21 18/63/21
f 23/70/22 24/69/22 20/68/22 21/67/22
f 22/74/23 23/73/23 21/72/23 18/71/23
f 20/78/24 24/77/24 25/76/24 19/75/24
f 29/82/25 28/81/25 27/80/25 26/79/25
f 33/86/26 32/85/26 31/84/26 30/83/26
f 27/90/27 33/89/27 30/88/27 26/87/27
f 31/94/28 32/93/28 28/92/28 29/91/28
f 30/98/29 31/97/29 29/96/29 26/95/29
f 28/102/30 32/101/30 33/100/30 27/99/30
f 37/106/31 36/105/31 35/104/31 34/103/31
f 41/110/32 40/109/32 39/108/32 38/107/32
f 35/114/33 41/113/33 38/112/33 34/111/33
f 39/118/34 40/117/34 36/116/34 37/115/34
f 38/122/35 39/121/35 37/120/35 34/119/35
f 36/126/36 40/125/36 41/124/36 35/123/36
f 45/130/37 44/129/37 43/128/37 42/127/37
f 49/134/38 48/133/38 47/132/38 46/131/38
f 43/138/39 49/137/39 46/136/39 42/135/39
f 47/142/40 48/141/40 44/140/40 45/139/40
f 46/146/41 47/145/41 45/144/41 42/143/41
f 44/150/42 48/149/42 49/148/42 43/147/42
f 53/154/43 52/153/43 51/152/43 50/151/43
f 57/158/44 56/157/44 55/156/44 54/155/44
f 51/162/45 57/161/45 54/160/45 50/159/45
f 55/166/46 56/165/46 52/164/46 53/163/46
f 54/170/47 55/169/47 53/168/47 50/167/47
f 52/174/48 56/173/48 57/172/48 51/171/48
